<svg xmlns="http://www.w3.org/2000/svg" width="48" height="48" id="seo"><g transform="translate(0 -1004.362)"><circle cx="24" cy="1028.362" r="24" fill="#ef4c45" fill-rule="evenodd"></circle><path fill="#fff" d="M4.488 3.002a.5.5 0 0 0-.482.498l-.03 8.2a.5.5 0 0 0 .104.306l11.53 15.101a.5.5 0 0 0 .337.192l2.84 1.164a.5.5 0 0 0 .496-.067l9-7a.5.5 0 0 0 .086-.705l-11-14a.5.5 0 0 0-.25-.17l-4.457-1.328a.5.5 0 0 0-.107-.043L4.637 3.018a.5.5 0 0 0-.149-.016Zm.516 1.15 7.088 1.909a.5.5 0 0 0 .045.02l11.117 14.56-7.152 5.463-11.125-14.57.027-7.382Zm2.725 2.244a1.48 1.48 0 0 0-.82.303c-.655.5-.781 1.448-.282 2.102.5.654 1.448.782 2.102.283.653-.5.782-1.45.283-2.104a1.496 1.496 0 0 0-1.283-.584Zm6.037.17 2.916.87 10.591 13.478-8.375 6.514-1.877-.77 7.237-5.525a.5.5 0 0 0 .094-.701L13.766 6.566Zm-5.88.827a.497.497 0 0 1 .33.195c.172.224.131.53-.093.701a.493.493 0 0 1-.701-.094.493.493 0 0 1 .094-.7.5.5 0 0 1 .37-.102zm4.872 1.148-3.18 2.428 1.82 2.385-1.587 1.212-1.823-2.384-.795.607 2.428 3.18 3.18-2.428-1.82-2.385 1.59-1.213 1.82 2.385.795-.607-2.123-2.782-.305-.398Zm3.027 3.965-5.592 4.271 2.426 3.176.795-.605-1.818-2.383 1.617-1.236 1.818 2.382.795-.607-1.818-2.381 1.59-1.215 1.82 2.385.795-.607-2.428-3.18zm3.033 3.973-.398.304-5.166 3.944 2.428 3.18 5.564-4.249-2.428-3.18zm-.19 1.402 1.216 1.59-3.973 3.033-1.215-1.59 3.973-3.033z" color="#000" font-family="sans-serif" font-weight="400" overflow="visible" transform="translate(10.023 1013.36)" style="line-height:normal;text-indent:0;text-align:start;text-decoration-line:none;text-decoration-style:solid;text-decoration-color:#000;text-transform:none;block-progression:tb;isolation:auto;mix-blend-mode:normal"></path></g></svg>